<svg width="175" height="175" viewBox="0 0 175 175" fill="none" xmlns="http://www.w3.org/2000/svg">
<path d="M174.014 87.8442C174.014 107.609 167.285 126.784 154.933 142.214C142.582 157.643 125.344 168.408 106.059 172.734C86.7741 177.061 66.5906 174.692 48.8314 166.017C31.0721 157.343 16.7958 142.88 8.3525 125.01C-0.0907491 107.14 -2.19761 86.9272 2.37877 67.6998C6.95514 48.4724 17.942 31.3763 33.5305 19.226C49.1191 7.07557 68.3802 0.595165 88.1431 0.851559C107.906 1.10795 126.992 8.08587 142.261 20.6366L139.774 23.6611C125.193 11.6752 106.966 5.01128 88.0923 4.76643C69.2188 4.52157 50.8245 10.7103 35.9374 22.3139C21.0504 33.9175 10.558 50.2442 6.18757 68.6063C1.81714 86.9684 3.82919 106.271 11.8925 123.337C19.9558 140.404 33.5897 154.215 50.5497 162.499C67.5097 170.783 86.785 173.046 105.202 168.914C123.619 164.782 140.081 154.502 151.877 139.767C163.672 125.032 170.099 106.719 170.099 87.8442H174.014Z" fill="#3D58B3"/>
</svg>
