<svg width="36" height="35" viewBox="0 0 36 35" fill="none" xmlns="http://www.w3.org/2000/svg">
<g clip-path="url(#clip0)">
<path fill-rule="evenodd" clip-rule="evenodd" d="M32.6244 -0.0012207H3.37443C1.51818 -0.0012207 -0.00130081 1.476 -0.00130081 3.28074V31.7182C-0.00130081 33.5229 1.51818 35.0001 3.37443 35.0001H32.6244C34.4806 35.0001 36.0001 33.5229 36.0001 31.7182V3.28069C36.0001 1.476 34.4806 -0.0012207 32.6244 -0.0012207ZM20.4642 9.50358H24.5788V4.70628H20.4642C17.2958 4.70628 14.7107 7.2189 14.7107 10.3032V12.7009H11.4207V17.4994H14.71V30.2926H19.6451V17.4994H23.7555L24.5787 12.7009H19.645V10.3032C19.645 9.86911 20.0218 9.50292 20.4642 9.50292V9.50352V9.50358Z" fill="#1D3588"/>
</g>
<defs>
<clipPath id="clip0">
<rect width="36" height="35" fill="white"/>
</clipPath>
</defs>
</svg>
