<svg width="37" height="36" viewBox="0 0 37 36" fill="none" xmlns="http://www.w3.org/2000/svg">
<g clip-path="url(#clip0)">
<path d="M18.503 0C13.4775 0 12.8452 0.0205078 10.873 0.108398C9.33854 0.138742 7.82052 0.422056 6.38346 0.946289C5.14833 1.39559 4.0299 2.10373 3.10742 3.02051C2.16602 3.91988 1.43659 5.00744 0.969564 6.20801C0.430559 7.60708 0.140359 9.08524 0.11141 10.5791C0.0240885 12.498 0 13.1104 0 18C0 22.8896 0.0210775 23.499 0.11141 25.4209C0.142596 26.9139 0.43378 28.3908 0.972575 29.7891C1.43663 30.9897 2.16414 32.0774 3.10441 32.9766C4.02797 33.8935 5.14597 34.6033 6.38045 35.0566C7.81878 35.5797 9.33776 35.862 10.873 35.8916C12.8452 35.9795 13.4745 36 18.5 36C23.5255 36 24.1518 35.9795 26.127 35.8916C27.6622 35.862 29.1812 35.5797 30.6195 35.0566C31.85 34.5923 32.9674 33.8835 33.9006 32.9756C34.8338 32.0676 35.5622 30.9804 36.0395 29.7832C36.5754 28.3842 36.8665 26.9077 36.9006 25.415C36.988 23.4961 37.012 22.8838 37.012 17.9941C37.012 13.1045 36.988 12.4922 36.9006 10.5732C36.8665 9.07965 36.5754 7.60217 36.0395 6.20215C35.5747 5.00117 34.8461 3.91335 33.9046 3.01465C32.9827 2.0972 31.8641 1.38895 30.6286 0.94043C29.1863 0.416898 27.6631 0.135552 26.124 0.108398C24.1488 0.0205078 23.5225 0 18.497 0H18.503ZM16.8409 3.24316H18.503C23.4412 3.24316 24.0253 3.26074 25.9765 3.34863C27.1496 3.36162 28.3118 3.57072 29.4121 3.9668C30.2155 4.25554 30.9419 4.71609 31.5379 5.31445C32.1516 5.89536 32.6248 6.6019 32.923 7.38281C33.3301 8.45342 33.545 9.58414 33.5583 10.7256C33.6487 12.6211 33.6667 13.1924 33.6667 17.9971C33.6667 22.8018 33.6487 23.3701 33.5583 25.2686C33.5453 26.4091 33.3304 27.5389 32.923 28.6084C32.6148 29.3841 32.1433 30.0885 31.5386 30.6763C30.934 31.2641 30.2096 31.7223 29.4121 32.0215C28.3125 32.4206 27.15 32.6308 25.9765 32.6426C24.0283 32.7305 23.4412 32.748 18.503 32.748C13.5649 32.748 12.9777 32.7305 11.0265 32.6426C9.8532 32.6286 8.69106 32.4186 7.5909 32.0215C6.78676 31.734 6.05925 31.2744 5.46208 30.6768C4.84818 30.0966 4.37589 29.3898 4.08 28.6084C3.67189 27.538 3.45597 26.4072 3.44165 25.2656C3.35433 23.3672 3.33626 22.7988 3.33626 17.9912C3.33626 13.1836 3.35433 12.6182 3.44165 10.7197C3.45416 9.57794 3.67014 8.44691 4.08 7.37695C4.37589 6.5956 4.84818 5.88879 5.46208 5.30859C6.05973 4.71079 6.78703 4.25037 7.5909 3.96094C8.69141 3.5651 9.85333 3.35504 11.0265 3.33984C12.7338 3.2666 13.3932 3.24316 16.8409 3.24023V3.24316ZM28.3763 6.23145C27.9367 6.23145 27.5069 6.35833 27.1414 6.59603C26.7759 6.83374 26.4911 7.17159 26.323 7.56683C26.1549 7.96207 26.1111 8.39695 26.1971 8.81644C26.283 9.23593 26.495 9.62117 26.8061 9.92343C27.1171 10.2257 27.5134 10.4314 27.9446 10.5145C28.3759 10.5976 28.8228 10.5543 29.2288 10.3902C29.6348 10.2261 29.9816 9.94857 30.2254 9.59263C30.4692 9.23668 30.5991 8.81837 30.5985 8.39062C30.5985 8.10683 30.541 7.82582 30.4293 7.56367C30.3175 7.30151 30.1538 7.06335 29.9474 6.86282C29.741 6.66228 29.496 6.5033 29.2265 6.39496C28.9569 6.28662 28.668 6.23106 28.3763 6.23145ZM18.503 8.75684C16.6241 8.75684 14.7874 9.29894 13.2251 10.3146C11.6629 11.3302 10.4453 12.7738 9.72623 14.4628C9.0072 16.1518 8.81907 18.0103 9.18563 19.8033C9.55219 21.5963 10.457 23.2432 11.7856 24.5359C13.1141 25.8286 14.8069 26.7089 16.6497 27.0656C18.4925 27.4222 20.4026 27.2392 22.1385 26.5396C23.8744 25.84 25.358 24.6553 26.4019 23.1352C27.4458 21.6152 28.0029 19.8281 28.0029 18C28.0021 15.5488 27.001 13.1982 25.2196 11.465C23.4382 9.73169 21.0223 8.75761 18.503 8.75684ZM18.503 12C19.723 11.9983 20.9162 12.3487 21.9315 13.0069C22.9468 13.6651 23.7386 14.6016 24.2067 15.6978C24.6748 16.794 24.7982 18.0007 24.5613 19.1651C24.3244 20.3296 23.7378 21.3995 22.8757 22.2395C22.0137 23.0795 20.9149 23.6518 19.7184 23.8841C18.522 24.1163 17.2816 23.998 16.1543 23.5441C15.0269 23.0902 14.0633 22.3212 13.3853 21.3343C12.7073 20.3474 12.3454 19.1871 12.3454 18C12.3486 16.4123 12.9984 14.8905 14.1526 13.768C15.3068 12.6456 16.8712 12.014 18.503 12.0117V12Z" fill="#1D3588"/>
</g>
<defs>
<clipPath id="clip0">
<rect width="37" height="36" fill="white"/>
</clipPath>
</defs>
</svg>
