<svg width="189" height="54" viewBox="0 0 189 54" fill="none" xmlns="http://www.w3.org/2000/svg">
<path d="M57.6143 44.1C56.2109 45.5034 54.4935 46.2051 52.4619 46.2051C50.4303 46.2051 48.7061 45.5034 47.2894 44.1C45.886 42.6832 45.1843 40.959 45.1843 38.9275C45.1843 36.8959 45.886 35.1784 47.2894 33.775C48.7061 32.3583 50.4303 31.6499 52.4619 31.6499C54.4935 31.6499 56.2109 32.3583 57.6143 33.775C59.0311 35.1784 59.7395 36.8959 59.7395 38.9275C59.7395 40.959 59.0311 42.6832 57.6143 44.1ZM48.9133 42.5362C49.889 43.4852 51.0719 43.9596 52.4619 43.9596C53.8653 43.9596 55.0414 43.4852 55.9904 42.5362C56.9527 41.5739 57.4339 40.371 57.4339 38.9275C57.4339 37.484 56.9527 36.2878 55.9904 35.3388C55.0414 34.3765 53.8653 33.8953 52.4619 33.8953C51.0585 33.8953 49.8756 34.3765 48.9133 35.3388C47.9643 36.2878 47.4899 37.484 47.4899 38.9275C47.4899 40.3576 47.9643 41.5605 48.9133 42.5362Z" fill="#2E469A"/>
<path d="M67.4361 46.2051C65.9257 46.2051 64.6627 45.6972 63.6469 44.6814C62.6445 43.6522 62.1433 42.4025 62.1433 40.9323C62.1433 39.4354 62.6445 38.1857 63.6469 37.1833C64.6627 36.1675 65.9257 35.6596 67.4361 35.6596C68.4117 35.6596 69.3006 35.8935 70.1025 36.3613C70.9044 36.8291 71.5059 37.4572 71.9069 38.2458L70.0424 39.3284C69.8151 38.8473 69.4676 38.473 68.9998 38.2057C68.5454 37.925 68.0175 37.7847 67.416 37.7847C66.5339 37.7847 65.7921 38.0854 65.1906 38.6869C64.6025 39.3017 64.3085 40.0502 64.3085 40.9323C64.3085 41.8145 64.6025 42.5629 65.1906 43.1777C65.7921 43.7792 66.5339 44.0799 67.416 44.0799C68.0041 44.0799 68.532 43.9463 68.9998 43.679C69.481 43.3983 69.8419 43.0174 70.0825 42.5362L71.947 43.5988C71.5193 44.4007 70.8978 45.0356 70.0825 45.5034C69.2805 45.9712 68.3984 46.2051 67.4361 46.2051Z" fill="#2E469A"/>
<path d="M84.0412 41.8545H76.0619C76.2223 42.603 76.5832 43.1844 77.1445 43.5988C77.7193 44.0131 78.4276 44.2203 79.2697 44.2203C80.4058 44.2203 81.2678 43.8059 81.8559 42.9773L83.6402 44.0198C82.6645 45.4766 81.201 46.2051 79.2496 46.2051C77.6324 46.2051 76.3159 45.7105 75.3001 44.7215C74.2976 43.7191 73.7964 42.456 73.7964 40.9323C73.7964 39.4487 74.291 38.199 75.28 37.1833C76.2557 36.1675 77.5255 35.6596 79.0892 35.6596C80.5461 35.6596 81.749 36.1741 82.698 37.2033C83.6469 38.2325 84.1214 39.4821 84.1214 40.9524C84.1214 41.2197 84.0947 41.5204 84.0412 41.8545ZM76.0419 40.0903H81.9361C81.7891 39.3017 81.455 38.6936 80.9337 38.2659C80.4258 37.8382 79.8043 37.6243 79.0692 37.6243C78.2672 37.6243 77.599 37.8449 77.0643 38.2859C76.5297 38.727 76.1889 39.3284 76.0419 40.0903Z" fill="#2E469A"/>
<path d="M94.9095 37.3436V35.9202H97.0748V45.9444H94.9095V44.5009C94.0942 45.637 92.9247 46.2051 91.401 46.2051C90.0244 46.2051 88.8482 45.6972 87.8725 44.6814C86.8968 43.6656 86.409 42.4159 86.409 40.9323C86.409 39.4487 86.8968 38.199 87.8725 37.1833C88.8482 36.1675 90.0244 35.6596 91.401 35.6596C92.9247 35.6596 94.0942 36.2209 94.9095 37.3436ZM89.4764 43.2379C90.0778 43.8393 90.833 44.1401 91.7419 44.1401C92.6507 44.1401 93.4059 43.8393 94.0073 43.2379C94.6088 42.6231 94.9095 41.8545 94.9095 40.9323C94.9095 40.0101 94.6088 39.2482 94.0073 38.6468C93.4059 38.032 92.6507 37.7246 91.7419 37.7246C90.833 37.7246 90.0778 38.032 89.4764 38.6468C88.8749 39.2482 88.5742 40.0101 88.5742 40.9323C88.5742 41.8412 88.8749 42.6097 89.4764 43.2379Z" fill="#2E469A"/>
<path d="M105.874 35.6596C107.037 35.6596 107.965 36.0338 108.66 36.7823C109.369 37.5174 109.723 38.5198 109.723 39.7896V45.9444H107.558V40.0101C107.558 39.2616 107.357 38.6869 106.956 38.2859C106.555 37.8849 106.007 37.6845 105.312 37.6845C104.524 37.6845 103.902 37.9317 103.448 38.4263C102.993 38.9074 102.766 39.6225 102.766 40.5714V45.9444H100.601V35.9202H102.766V37.2033C103.434 36.1741 104.47 35.6596 105.874 35.6596Z" fill="#2E469A"/>
<path d="M112.66 31.9105H115.066L113.662 37.1231H111.858L112.66 31.9105Z" fill="#2E469A"/>
<path d="M140.399 45.9444H137.732L133.763 31.9105H136.188L139.136 42.877L142.323 31.9105H144.448L147.616 42.877L150.563 31.9105H152.989L149.019 45.9444H146.353L143.386 35.6997L140.399 45.9444Z" fill="#2E469A"/>
<path d="M162.401 37.3436V35.9202H164.566V45.9444H162.401V44.5009C161.586 45.637 160.416 46.2051 158.892 46.2051C157.516 46.2051 156.34 45.6972 155.364 44.6814C154.388 43.6656 153.9 42.4159 153.9 40.9323C153.9 39.4487 154.388 38.199 155.364 37.1833C156.34 36.1675 157.516 35.6596 158.892 35.6596C160.416 35.6596 161.586 36.2209 162.401 37.3436ZM156.968 43.2379C157.569 43.8393 158.324 44.1401 159.233 44.1401C160.142 44.1401 160.897 43.8393 161.499 43.2379C162.1 42.6231 162.401 41.8545 162.401 40.9323C162.401 40.0101 162.1 39.2482 161.499 38.6468C160.897 38.032 160.142 37.7246 159.233 37.7246C158.324 37.7246 157.569 38.032 156.968 38.6468C156.366 39.2482 156.066 40.0101 156.066 40.9323C156.066 41.8412 156.366 42.6097 156.968 43.2379Z" fill="#2E469A"/>
<path d="M172.102 43.5386L174.889 35.9202H177.254L173.345 45.9444H170.839L166.929 35.9202H169.295L172.102 43.5386Z" fill="#2E469A"/>
<path d="M188.92 41.8545H180.941C181.101 42.603 181.462 43.1844 182.023 43.5988C182.598 44.0131 183.306 44.2203 184.148 44.2203C185.284 44.2203 186.146 43.8059 186.735 42.9773L188.519 44.0198C187.543 45.4766 186.08 46.2051 184.128 46.2051C182.511 46.2051 181.194 45.7105 180.179 44.7215C179.176 43.7191 178.675 42.456 178.675 40.9323C178.675 39.4487 179.17 38.199 180.159 37.1833C181.134 36.1675 182.404 35.6596 183.968 35.6596C185.425 35.6596 186.628 36.1741 187.577 37.2033C188.526 38.2325 189 39.4821 189 40.9524C189 41.2197 188.973 41.5204 188.92 41.8545ZM180.92 40.0903H186.815C186.668 39.3017 186.334 38.6936 185.812 38.2659C185.304 37.8382 184.683 37.6243 183.948 37.6243C183.146 37.6243 182.478 37.8449 181.943 38.2859C181.408 38.727 181.067 39.3284 180.92 40.0903Z" fill="#2E469A"/>
<path d="M120.311 38.6869C120.311 38.9943 120.472 39.2482 120.792 39.4487C121.113 39.6358 121.581 39.8163 122.196 39.99C122.664 40.0969 123.071 40.2105 123.419 40.3308C123.766 40.4511 124.134 40.6316 124.521 40.8721C124.909 41.0994 125.203 41.4068 125.404 41.7944C125.617 42.1686 125.718 42.6097 125.704 43.1176C125.704 44.0799 125.33 44.8351 124.582 45.383C123.833 45.931 122.904 46.205 121.795 46.205C120.806 46.205 119.957 45.9979 119.249 45.5835C118.54 45.1692 118.026 44.5945 117.705 43.8594L119.569 42.7767C119.904 43.7391 120.645 44.2202 121.795 44.2202C122.931 44.2202 123.499 43.846 123.499 43.0975C123.499 42.5495 122.864 42.1218 121.594 41.8144C121.113 41.6941 120.706 41.5738 120.371 41.4535C120.051 41.3333 119.69 41.1595 119.289 40.9323C118.901 40.7051 118.6 40.4043 118.387 40.0301C118.186 39.6559 118.093 39.2215 118.106 38.727C118.106 37.8047 118.453 37.0629 119.148 36.5016C119.857 35.9402 120.732 35.6595 121.775 35.6595C122.603 35.6595 123.339 35.8467 123.98 36.2209C124.635 36.5818 125.136 37.0897 125.484 37.7446L123.659 38.7671C123.325 38.0052 122.697 37.6243 121.775 37.6243C121.347 37.6243 120.993 37.7178 120.712 37.905C120.445 38.0921 120.311 38.3527 120.311 38.6869Z" fill="#B4C3F4"/>
<mask id="mask0" mask-type="alpha" maskUnits="userSpaceOnUse" x="0" y="0" width="45" height="54">
<path d="M28.7153 30.0081C33.6187 19.557 41.698 22.0375 44.587 24.996C41.4544 16.016 28.7153 14.763 24.6429 26.0402C20.5706 37.3174 28.4716 47.2372 33.1009 47.1328C29.4462 45.7058 24.6429 38.6878 28.7153 30.0081Z" fill="#9DAEE4"/>
<path d="M19.2132 27.2932C23.912 12.4657 36.8948 12.222 39.7837 15.1806C36.6511 6.20059 15.3496 5.46962 12.8436 24.7871C10.3377 44.1046 25.0258 50.5787 29.6551 50.4742C26.0004 49.0472 16.3168 36.4328 19.2132 27.2932Z" fill="#465FB7"/>
<path d="M9.6066 27.5022C11.3817 1.98577 29.1331 3.48581 34.8761 5.46973C24.5386 -6.64291 3.68205e-05 1.81507 0 26.3534C-3.68204e-05 50.8918 16.8115 54.129 27.1491 52.876C12.948 47.5506 8.94121 37.0666 9.6066 27.5022Z" fill="#2E469A"/>
</mask>
<g mask="url(#mask0)">
<path d="M-9.05843 6.14009L14.2294 12.3801L-2.81846 29.428L-9.05843 6.14009Z" fill="#536EC9"/>
<path d="M-2.71918 29.4741L-25.6431 23.4036L-8.59522 6.35571L-2.71918 29.4741Z" fill="#465FB7"/>
<path d="M14.6996 12.5886L-8.58829 6.34868L8.45962 -10.6992L14.6996 12.5886Z" fill="#465FB7"/>
<path d="M31.7545 -4.46614L8.4666 -10.7061L25.5145 -27.754L31.7545 -4.46614Z" fill="#2E469A"/>
<path d="M7.99644 -10.9148L31.2843 -4.67479L14.2364 12.3731L7.99644 -10.9148Z" fill="#9DAEE4"/>
<path d="M5.11648 28.5064L11.8813 46.2186L24.014 31.2828L5.11648 28.5064Z" fill="#536EC9"/>
<path d="M24.0989 31.3765L17.3549 13.6577L5.22216 28.5934L24.0989 31.3765Z" fill="#465FB7"/>
<path d="M17.1506 13.3016L24.019 31.2767L36.1517 16.3409L17.1506 13.3016Z" fill="#2E469A"/>
<path d="M11.9171 46.2785L5.21724 28.5995L-6.91549 43.5353L11.9171 46.2785Z" fill="#465FB7"/>
<path d="M29.2883 -1.64038L36.1567 16.3348L48.2894 1.39899L29.2883 -1.64038Z" fill="#2E469A"/>
<path d="M-0.052144 61.5166L-6.92054 43.5414L-19.0533 58.4772L-0.052144 61.5166Z" fill="#2E469A"/>
<path d="M-7.12483 43.1853L-0.256434 61.1604L11.8763 46.2247L-7.12483 43.1853Z" fill="#9DAEE4"/>
<path d="M36.2331 16.3562L29.3647 -1.61895L17.232 13.3168L36.2331 16.3562Z" fill="#465FB7"/>
<path d="M48.4987 1.74905L41.6303 -16.2261L29.4975 -1.29032L48.4987 1.74905Z" fill="#B4C3F4"/>
<path d="M58.1396 27.853L38.4686 22.5822L52.8688 8.18201L58.1396 27.853Z" fill="#465FB7"/>
<path d="M38.0714 22.4059L57.7424 27.6767L44.5644 43.4809L38.0714 22.4059Z" fill="#2E469A"/>
<path d="M24.0369 36.9723L44.5644 42.1041L28.9362 56.483L24.0369 36.9723Z" fill="#2E469A"/>
<path d="M44.1889 42.2293L24.0625 36.9882L38.4627 22.5881L44.1889 42.2293Z" fill="#465FB7"/>
<path d="M29.3274 56.6651L9.65641 51.3943L24.0566 36.9941L29.3274 56.6651Z" fill="#B4C3F4"/>
</g>
</svg>
