<svg width="35" height="35" viewBox="0 0 35 35" fill="none" xmlns="http://www.w3.org/2000/svg">
<path fill-rule="evenodd" clip-rule="evenodd" d="M17.5 0C27.165 0 35 7.83498 35 17.5C35 27.165 27.165 35 17.5 35C7.83498 35 0 27.165 0 17.5C0 7.83498 7.83498 0 17.5 0ZM25.923 9.57651L22.8008 25.318C22.8008 25.318 22.3642 26.4095 21.1634 25.8854L13.9804 20.2307C13.9804 20.2307 21.9713 13.0478 22.2987 12.7421C22.6262 12.4365 22.517 12.3711 22.517 12.3711C22.5387 11.9999 21.9275 12.3711 21.9275 12.3711L11.3387 19.0956L6.92852 17.6109C6.92852 17.6109 6.25169 17.3706 6.18627 16.8468C6.12075 16.3226 6.95036 16.0389 6.95036 16.0389L24.4822 9.16165C24.4822 9.16165 25.923 8.5285 25.923 9.57651ZM16.7211 22.4798L13.8713 25.078C13.8713 25.078 13.6485 25.247 13.4048 25.1411L13.9505 20.3148L16.7211 22.4798Z" fill="#1D3588"/>
</svg>
