<svg width="31" height="32" viewBox="0 0 31 32" fill="none" xmlns="http://www.w3.org/2000/svg">
<path fill-rule="evenodd" clip-rule="evenodd" d="M15.5 0C24.0604 0 31 7.16341 31 16C31 24.8366 24.0604 32 15.5 32C6.93955 32 0 24.8366 0 16C0 7.16341 6.93955 0 15.5 0ZM22.9604 8.75566L20.195 23.1479C20.195 23.1479 19.8083 24.1459 18.7448 23.6666L12.3826 18.4967C12.3826 18.4967 19.4603 11.9294 19.7503 11.65C20.0403 11.3705 19.9436 11.3107 19.9436 11.3107C19.9629 10.9713 19.4215 11.3107 19.4215 11.3107L10.0429 17.4588L6.13669 16.1014C6.13669 16.1014 5.53721 15.8817 5.47927 15.4028C5.42124 14.9236 6.15603 14.6642 6.15603 14.6642L21.6842 8.37637C21.6842 8.37637 22.9604 7.79749 22.9604 8.75566ZM14.8101 20.553L12.286 22.9285C12.286 22.9285 12.0887 23.083 11.8728 22.9862L12.3561 18.5736L14.8101 20.553Z" fill="white"/>
</svg>
