<svg width="36" height="36" viewBox="0 0 36 36" fill="none" xmlns="http://www.w3.org/2000/svg">
<path fill-rule="evenodd" clip-rule="evenodd" d="M32.6249 0H3.375C1.51875 0 0 1.51875 0 3.375V32.625C0 34.4813 1.51875 36 3.375 36H32.6249C34.4812 36 35.9999 34.4813 35.9999 32.625V3.375C35.9999 1.51875 34.4812 0 32.6249 0ZM29.2532 11.0213C28.4122 11.3952 27.5193 11.6389 26.605 11.7442C27.5564 11.1768 28.2865 10.2693 28.6354 9.18967C27.7431 9.71786 26.7525 10.1058 25.7055 10.3124C24.859 9.41692 23.6612 8.85949 22.3337 8.85949C19.7839 8.85949 17.719 10.923 17.719 13.4729C17.719 13.8304 17.7575 14.1831 17.8365 14.5233C14.0011 14.3273 10.6001 12.491 8.32196 9.69789C7.91223 10.4024 7.69631 11.2029 7.69612 12.0179C7.69612 13.6191 8.50933 15.0342 9.7484 15.8574C8.991 15.8354 8.28208 15.6262 7.65557 15.2833V15.3418C7.65557 17.5781 9.24744 19.4464 11.3602 19.8688C10.9636 19.9763 10.5546 20.0308 10.1437 20.031C9.84606 20.031 9.55839 20.0018 9.27337 19.9479C9.86136 21.781 11.5635 23.1177 13.5845 23.1542C12.0019 24.3939 10.0141 25.1321 7.84957 25.1321C7.47551 25.1321 7.11079 25.1102 6.74674 25.0676C8.79367 26.3818 11.22 27.1405 13.827 27.1405C22.3171 27.1405 26.9618 20.1061 26.9618 14.0064C26.9618 13.8038 26.9584 13.6058 26.9485 13.4071C27.85 12.7627 28.6341 11.9482 29.2506 11.0234L29.2533 11.0213H29.2532Z" fill="#1D3588"/>
</svg>
