<svg width="45" height="33" viewBox="0 0 45 33" fill="none" xmlns="http://www.w3.org/2000/svg">
<path fill-rule="evenodd" clip-rule="evenodd" d="M44.5407 7.50267C44.5407 7.50267 44.1014 4.40083 42.7494 3.03888C41.0361 1.24753 39.1177 1.23592 38.2407 1.13214C31.9482 0.673706 22.4975 0.673706 22.4975 0.673706H22.4809C22.4809 0.673706 13.0343 0.673706 6.7384 1.13214C5.85809 1.23923 3.94222 1.24675 2.22975 3.03888C0.876942 4.40083 0.44677 7.50267 0.44677 7.50267C0.44677 7.50267 -0.000839233 11.1426 -0.000839233 14.7901V18.2009C-0.000839233 21.8408 0.44677 25.4883 0.44677 25.4883C0.44677 25.4883 0.886083 28.59 2.22975 29.9545C3.94222 31.7459 6.19278 31.6877 7.19768 31.8787C10.8003 32.2226 22.5008 32.3264 22.5008 32.3264C22.5008 32.3264 31.9599 32.3097 38.2523 31.8596C39.1326 31.7558 41.0477 31.745 42.761 29.9528C44.1138 28.5909 44.5523 25.4857 44.5523 25.4857C44.5523 25.4857 45 21.8459 45 18.1983V14.7876C44.9909 11.1476 44.5432 7.50021 44.5432 7.50021L44.5407 7.50267V7.50267ZM17.836 22.3391V9.69185L29.9925 16.0366L17.836 22.3391V22.3391Z" fill="#1D3588"/>
</svg>
