<svg width="40" height="40" viewBox="0 0 40 40" fill="none" xmlns="http://www.w3.org/2000/svg">
<g clip-path="url(#clip0)">
<path fill-rule="evenodd" clip-rule="evenodd" d="M39.5918 12.0028C39.5918 12.0028 39.2013 9.24562 37.9995 8.03499C36.4766 6.44268 34.7713 6.43237 33.9918 6.34012C28.3985 5.93262 19.9978 5.93262 19.9978 5.93262H19.983C19.983 5.93262 11.586 5.93262 5.98971 6.34012C5.20721 6.4353 3.5042 6.44199 1.98202 8.03499C0.779518 9.24562 0.397143 12.0028 0.397143 12.0028C0.397143 12.0028 -0.000732422 15.2383 -0.000732422 18.4805V21.5123C-0.000732422 24.7478 0.397143 27.99 0.397143 27.99C0.397143 27.99 0.787642 30.7471 1.98202 31.96C3.5042 33.5523 5.5047 33.5006 6.39795 33.6704C9.60027 33.9761 20.0007 34.0683 20.0007 34.0683C20.0007 34.0683 28.4088 34.0535 34.0021 33.6534C34.7846 33.5611 36.4868 33.5516 38.0098 31.9585C39.2123 30.7479 39.602 27.9877 39.602 27.9877C39.602 27.9877 40 24.7523 40 21.5101V18.4783C39.9919 15.2427 39.594 12.0006 39.594 12.0006L39.5918 12.0028V12.0028ZM15.8543 25.1907V13.9487L26.66 19.5886L15.8543 25.1907V25.1907Z" fill="white"/>
</g>
<defs>
<clipPath id="clip0">
<rect width="40" height="40" fill="white"/>
</clipPath>
</defs>
</svg>
